<svg width="52" height="52" viewBox="0 0 52 52" fill="none" xmlns="http://www.w3.org/2000/svg">
<path d="M11.3752 8.66663C9.5076 8.66663 7.71652 9.40851 6.39595 10.7291C5.07538 12.0497 4.3335 13.8407 4.3335 15.7083V36.2916C4.3335 38.1592 5.07538 39.9503 6.39595 41.2708C7.71652 42.5914 9.5076 43.3333 11.3752 43.3333H40.6252C41.5499 43.3333 42.4656 43.1512 43.3199 42.7973C44.1742 42.4434 44.9505 41.9247 45.6044 41.2708C46.2583 40.617 46.7769 39.8407 47.1308 38.9864C47.4847 38.132 47.6668 37.2164 47.6668 36.2916V15.7083C47.6668 14.7836 47.4847 13.8679 47.1308 13.0136C46.7769 12.1592 46.2583 11.383 45.6044 10.7291C44.9505 10.0752 44.1742 9.55652 43.3199 9.20264C42.4656 8.84876 41.5499 8.66663 40.6252 8.66663H11.3752ZM7.5835 15.7083C7.5835 13.6153 9.28216 11.9166 11.3752 11.9166H17.3335V22.75H7.5835V15.7083ZM7.5835 26H44.4168V36.2916C44.4168 37.2972 44.0173 38.2617 43.3063 38.9727C42.5952 39.6838 41.6308 40.0833 40.6252 40.0833H11.3752C10.3695 40.0833 9.40512 39.6838 8.69405 38.9727C7.98297 38.2617 7.5835 37.2972 7.5835 36.2916V26ZM44.4168 22.75H34.6668V11.9166H40.6252C42.7182 11.9166 44.4168 13.6153 44.4168 15.7083V22.75ZM31.4168 11.9166V22.75H20.5835V11.9166H31.4168Z" fill="black"/>
</svg>
