<svg width="24" height="24" viewBox="0 0 24 24" fill="none" xmlns="http://www.w3.org/2000/svg">
<path d="M20.0001 10C20.0001 9.73481 19.8947 9.48046 19.7072 9.29292C19.5197 9.10539 19.2653 9.00003 19.0001 9.00003C18.7349 9.00003 18.4805 9.10539 18.293 9.29292C18.1054 9.48046 18.0001 9.73481 18.0001 10H20.0001ZM6.00008 10C6.00008 9.73481 5.89472 9.48046 5.70719 9.29292C5.51965 9.10539 5.2653 9.00003 5.00008 9.00003C4.73486 9.00003 4.48051 9.10539 4.29297 9.29292C4.10544 9.48046 4.00008 9.73481 4.00008 10H6.00008ZM20.2931 12.707C20.4817 12.8892 20.7343 12.99 20.9965 12.9877C21.2587 12.9854 21.5095 12.8803 21.6949 12.6948C21.8803 12.5094 21.9855 12.2586 21.9878 11.9964C21.99 11.7342 21.8892 11.4816 21.7071 11.293L20.2931 12.707ZM12.0001 3.00003L12.7071 2.29303C12.5196 2.10556 12.2652 2.00024 12.0001 2.00024C11.7349 2.00024 11.4806 2.10556 11.2931 2.29303L12.0001 3.00003ZM2.29308 11.293C2.19757 11.3853 2.12139 11.4956 2.06898 11.6176C2.01657 11.7396 1.98898 11.8709 1.98783 12.0036C1.98668 12.1364 2.01198 12.2681 2.06226 12.391C2.11254 12.5139 2.18679 12.6255 2.28069 12.7194C2.37458 12.8133 2.48623 12.8876 2.60913 12.9379C2.73202 12.9881 2.8637 13.0134 2.99648 13.0123C3.12926 13.0111 3.26048 12.9835 3.38249 12.9311C3.50449 12.8787 3.61483 12.8025 3.70708 12.707L2.29308 11.293ZM7.00008 22H17.0001V20H7.00008V22ZM20.0001 19V10H18.0001V19H20.0001ZM6.00008 19V10H4.00008V19H6.00008ZM21.7071 11.293L12.7071 2.29303L11.2931 3.70703L20.2931 12.707L21.7071 11.293ZM11.2931 2.29303L2.29308 11.293L3.70708 12.707L12.7071 3.70703L11.2931 2.29303ZM17.0001 22C17.7957 22 18.5588 21.684 19.1214 21.1214C19.684 20.5587 20.0001 19.7957 20.0001 19H18.0001C18.0001 19.2652 17.8947 19.5196 17.7072 19.7071C17.5197 19.8947 17.2653 20 17.0001 20V22ZM7.00008 20C6.73486 20 6.48051 19.8947 6.29297 19.7071C6.10544 19.5196 6.00008 19.2652 6.00008 19H4.00008C4.00008 19.7957 4.31615 20.5587 4.87876 21.1214C5.44137 21.684 6.20443 22 7.00008 22V20Z" fill="black"/>
</svg>
