<svg width="39" height="39" viewBox="0 0 39 39" fill="none" xmlns="http://www.w3.org/2000/svg">
<path d="M8.125 8.125H17.875C18.7688 8.125 19.5 7.39375 19.5 6.5C19.5 5.60625 18.7688 4.875 17.875 4.875H8.125C6.3375 4.875 4.875 6.3375 4.875 8.125V30.875C4.875 32.6625 6.3375 34.125 8.125 34.125H17.875C18.7688 34.125 19.5 33.3938 19.5 32.5C19.5 31.6062 18.7688 30.875 17.875 30.875H8.125V8.125Z" fill="black"/>
<path d="M33.5562 18.9313L29.0225 14.3975C28.9095 14.2814 28.7644 14.2017 28.6058 14.1685C28.4472 14.1353 28.2823 14.1502 28.1322 14.2113C27.9822 14.2724 27.8537 14.3768 27.7634 14.5113C27.673 14.6458 27.6248 14.8042 27.625 14.9663V17.875H16.25C15.3562 17.875 14.625 18.6063 14.625 19.5C14.625 20.3938 15.3562 21.125 16.25 21.125H27.625V24.0338C27.625 24.765 28.5025 25.1225 29.0062 24.6025L33.54 20.0688C33.865 19.76 33.865 19.24 33.5562 18.9313Z" fill="black"/>
</svg>
