<svg width="40" height="40" viewBox="0 0 40 40" fill="none" xmlns="http://www.w3.org/2000/svg">
<path d="M31.6667 10.0001H28.3333C28.3333 5.33341 24.6667 1.66675 20 1.66675C15.3333 1.66675 11.6667 5.33341 11.6667 10.0001H8.33333C6.5 10.0001 5 11.5001 5 13.3334V33.3334C5 35.1667 6.5 36.6667 8.33333 36.6667H31.6667C33.5 36.6667 35 35.1667 35 33.3334V13.3334C35 11.5001 33.5 10.0001 31.6667 10.0001ZM20 5.00008C22.8333 5.00008 25 7.16675 25 10.0001H15C15 7.16675 17.1667 5.00008 20 5.00008ZM31.6667 33.3334H8.33333V13.3334H31.6667V33.3334ZM20 20.0001C17.1667 20.0001 15 17.8334 15 15.0001H11.6667C11.6667 19.6667 15.3333 23.3334 20 23.3334C24.6667 23.3334 28.3333 19.6667 28.3333 15.0001H25C25 17.8334 22.8333 20.0001 20 20.0001Z" fill="black"/>
</svg>
