<svg width="24" height="24" viewBox="0 0 24 24" fill="none" xmlns="http://www.w3.org/2000/svg">
<path d="M20.25 1.99902C21.216 1.99902 22 2.78302 22 3.74902V6.79202C21.9999 7.29439 21.8622 7.78713 21.6018 8.21676C21.3414 8.64638 20.9683 8.99647 20.523 9.22902L14.241 12.509C15.2474 13.0137 16.0539 13.8433 16.5302 14.8635C17.0064 15.8836 17.1244 17.0346 16.865 18.1302C16.6057 19.2257 15.9842 20.2017 15.1012 20.9001C14.2182 21.5985 13.1253 21.9784 11.9995 21.9784C10.8737 21.9784 9.78079 21.5985 8.89777 20.9001C8.01476 20.2017 7.39328 19.2257 7.13395 18.1302C6.87463 17.0346 6.99262 15.8836 7.46885 14.8635C7.94507 13.8433 8.75164 13.0137 9.758 12.509L3.478 9.23002C3.03236 8.99753 2.65896 8.64734 2.39839 8.21751C2.13781 7.78769 2.00003 7.29467 2 6.79202V3.74902C2 2.78302 2.784 1.99902 3.75 1.99902H20.25ZM12 13.48C11.0717 13.48 10.1815 13.8488 9.52513 14.5051C8.86875 15.1615 8.5 16.0518 8.5 16.98C8.5 17.9083 8.86875 18.7985 9.52513 19.4549C10.1815 20.1113 11.0717 20.48 12 20.48C12.9283 20.48 13.8185 20.1113 14.4749 19.4549C15.1313 18.7985 15.5 17.9083 15.5 16.98C15.5 16.0518 15.1313 15.1615 14.4749 14.5051C13.8185 13.8488 12.9283 13.48 12 13.48ZM15.5 3.49802H8.5V10.16L11.884 11.928C11.9198 11.9468 11.9596 11.9566 12 11.9566C12.0404 11.9566 12.0802 11.9468 12.116 11.928L15.5 10.159V3.49802ZM7 3.49802L3.75 3.49902C3.6837 3.49902 3.62011 3.52536 3.57322 3.57225C3.52634 3.61913 3.5 3.68272 3.5 3.74902V6.79202C3.5 7.25702 3.759 7.68402 4.171 7.90002L7 9.37602V3.49802ZM20.25 3.49902L17 3.49802V9.37602L19.829 7.90002C20.0314 7.79425 20.2009 7.63505 20.3192 7.43972C20.4375 7.24439 20.5 7.02038 20.5 6.79202V3.74902C20.5 3.68272 20.4737 3.61913 20.4268 3.57225C20.3799 3.52536 20.3163 3.49902 20.25 3.49902Z" fill="black"/>
</svg>
