<svg width="35" height="35" viewBox="0 0 35 35" fill="none" xmlns="http://www.w3.org/2000/svg">
<path d="M20.4168 20.7842V23.8321C19.0969 23.3655 17.6843 23.2223 16.2976 23.4147C14.9109 23.6071 13.5907 24.1295 12.4477 24.9378C11.3047 25.7462 10.3723 26.8171 9.72894 28.0604C9.08555 29.3038 8.7499 30.6834 8.75016 32.0834H5.8335C5.83282 30.3025 6.23987 28.545 7.02345 26.9458C7.80703 25.3465 8.94634 23.9478 10.3541 22.857C11.7618 21.7661 13.4006 21.0121 15.1448 20.6525C16.8891 20.293 18.6925 20.339 20.4168 20.7842ZM17.5002 18.9584C12.6658 18.9584 8.75016 15.0427 8.75016 10.2084C8.75016 5.374 12.6658 1.45837 17.5002 1.45837C22.3345 1.45837 26.2502 5.374 26.2502 10.2084C26.2502 15.0427 22.3345 18.9584 17.5002 18.9584ZM17.5002 16.0417C20.7231 16.0417 23.3335 13.4313 23.3335 10.2084C23.3335 6.98546 20.7231 4.37504 17.5002 4.37504C14.2772 4.37504 11.6668 6.98546 11.6668 10.2084C11.6668 13.4313 14.2772 16.0417 17.5002 16.0417ZM26.2502 24.7917V20.4167H29.1668V24.7917H33.5418V27.7084H29.1668V32.0834H26.2502V27.7084H21.8752V24.7917H26.2502Z" fill="black"/>
</svg>
